<?xml version="1.0" encoding="utf-8" standalone="no"?>
<!DOCTYPE svg PUBLIC "-//W3C//DTD SVG 1.1//EN"
  "http://www.w3.org/Graphics/SVG/1.1/DTD/svg11.dtd">
<svg xmlns:xlink="http://www.w3.org/1999/xlink" width="1080pt" height="360pt" viewBox="0 0 1080 360" xmlns="http://www.w3.org/2000/svg" version="1.1">
 <metadata>
  <rdf:RDF xmlns:dc="http://purl.org/dc/elements/1.1/" xmlns:cc="http://creativecommons.org/ns#" xmlns:rdf="http://www.w3.org/1999/02/22-rdf-syntax-ns#">
   <cc:Work>
    <dc:type rdf:resource="http://purl.org/dc/dcmitype/StillImage"/>
    <dc:date>2022-07-18T16:35:34.409576</dc:date>
    <dc:format>image/svg+xml</dc:format>
    <dc:creator>
     <cc:Agent>
      <dc:title>Matplotlib v3.5.2, https://matplotlib.org/</dc:title>
     </cc:Agent>
    </dc:creator>
   </cc:Work>
  </rdf:RDF>
 </metadata>
 <defs>
  <style type="text/css">*{stroke-linejoin: round; stroke-linecap: butt}</style>
 </defs>
 <g id="figure_1">
  <g id="patch_1">
   <path d="M 0 360 
L 1080 360 
L 1080 0 
L 0 0 
z
" style="fill: #f0f0f0"/>
  </g>
  <g id="axes_1">
   <g id="patch_2">
    <path d="M 86.4 334.8 
L 362.752941 334.8 
L 362.752941 43.2 
L 86.4 43.2 
z
" style="fill: #f0f0f0"/>
   </g>
   <g id="matplotlib.axis_1">
    <g id="xtick_1">
     <g id="line2d_1">
      <path d="M 98.961497 334.8 
L 98.961497 43.2 
" clip-path="url(#pe8f19a3eef)" style="fill: none; stroke: #cbcbcb"/>
     </g>
     <g id="text_1">
      <!-- 2 -->
      <g style="fill: #262626" transform="translate(95.902982 349.673594)scale(0.11 -0.11)">
       <defs>
        <path id="ArialMT-32" d="M 3222 541 
L 3222 0 
L 194 0 
Q 188 203 259 391 
Q 375 700 629 1000 
Q 884 1300 1366 1694 
Q 2113 2306 2375 2664 
Q 2638 3022 2638 3341 
Q 2638 3675 2398 3904 
Q 2159 4134 1775 4134 
Q 1369 4134 1125 3890 
Q 881 3647 878 3216 
L 300 3275 
Q 359 3922 746 4261 
Q 1134 4600 1788 4600 
Q 2447 4600 2831 4234 
Q 3216 3869 3216 3328 
Q 3216 3053 3103 2787 
Q 2991 2522 2730 2228 
Q 2469 1934 1863 1422 
Q 1356 997 1212 845 
Q 1069 694 975 541 
L 3222 541 
z
" transform="scale(0.015625)"/>
       </defs>
       <use xlink:href="#ArialMT-32"/>
      </g>
     </g>
    </g>
    <g id="xtick_2">
     <g id="line2d_2">
      <path d="M 161.768984 334.8 
L 161.768984 43.2 
" clip-path="url(#pe8f19a3eef)" style="fill: none; stroke: #cbcbcb"/>
     </g>
     <g id="text_2">
      <!-- 4 -->
      <g style="fill: #262626" transform="translate(158.710468 349.673594)scale(0.11 -0.11)">
       <defs>
        <path id="ArialMT-34" d="M 2069 0 
L 2069 1097 
L 81 1097 
L 81 1613 
L 2172 4581 
L 2631 4581 
L 2631 1613 
L 3250 1613 
L 3250 1097 
L 2631 1097 
L 2631 0 
L 2069 0 
z
M 2069 1613 
L 2069 3678 
L 634 1613 
L 2069 1613 
z
" transform="scale(0.015625)"/>
       </defs>
       <use xlink:href="#ArialMT-34"/>
      </g>
     </g>
    </g>
    <g id="xtick_3">
     <g id="line2d_3">
      <path d="M 224.576471 334.8 
L 224.576471 43.2 
" clip-path="url(#pe8f19a3eef)" style="fill: none; stroke: #cbcbcb"/>
     </g>
     <g id="text_3">
      <!-- 6 -->
      <g style="fill: #262626" transform="translate(221.517955 349.673594)scale(0.11 -0.11)">
       <defs>
        <path id="ArialMT-36" d="M 3184 3459 
L 2625 3416 
Q 2550 3747 2413 3897 
Q 2184 4138 1850 4138 
Q 1581 4138 1378 3988 
Q 1113 3794 959 3422 
Q 806 3050 800 2363 
Q 1003 2672 1297 2822 
Q 1591 2972 1913 2972 
Q 2475 2972 2870 2558 
Q 3266 2144 3266 1488 
Q 3266 1056 3080 686 
Q 2894 316 2569 119 
Q 2244 -78 1831 -78 
Q 1128 -78 684 439 
Q 241 956 241 2144 
Q 241 3472 731 4075 
Q 1159 4600 1884 4600 
Q 2425 4600 2770 4297 
Q 3116 3994 3184 3459 
z
M 888 1484 
Q 888 1194 1011 928 
Q 1134 663 1356 523 
Q 1578 384 1822 384 
Q 2178 384 2434 671 
Q 2691 959 2691 1453 
Q 2691 1928 2437 2201 
Q 2184 2475 1800 2475 
Q 1419 2475 1153 2201 
Q 888 1928 888 1484 
z
" transform="scale(0.015625)"/>
       </defs>
       <use xlink:href="#ArialMT-36"/>
      </g>
     </g>
    </g>
    <g id="xtick_4">
     <g id="line2d_4">
      <path d="M 287.383957 334.8 
L 287.383957 43.2 
" clip-path="url(#pe8f19a3eef)" style="fill: none; stroke: #cbcbcb"/>
     </g>
     <g id="text_4">
      <!-- 8 -->
      <g style="fill: #262626" transform="translate(284.325442 349.673594)scale(0.11 -0.11)">
       <defs>
        <path id="ArialMT-38" d="M 1131 2484 
Q 781 2613 612 2850 
Q 444 3088 444 3419 
Q 444 3919 803 4259 
Q 1163 4600 1759 4600 
Q 2359 4600 2725 4251 
Q 3091 3903 3091 3403 
Q 3091 3084 2923 2848 
Q 2756 2613 2416 2484 
Q 2838 2347 3058 2040 
Q 3278 1734 3278 1309 
Q 3278 722 2862 322 
Q 2447 -78 1769 -78 
Q 1091 -78 675 323 
Q 259 725 259 1325 
Q 259 1772 486 2073 
Q 713 2375 1131 2484 
z
M 1019 3438 
Q 1019 3113 1228 2906 
Q 1438 2700 1772 2700 
Q 2097 2700 2305 2904 
Q 2513 3109 2513 3406 
Q 2513 3716 2298 3927 
Q 2084 4138 1766 4138 
Q 1444 4138 1231 3931 
Q 1019 3725 1019 3438 
z
M 838 1322 
Q 838 1081 952 856 
Q 1066 631 1291 507 
Q 1516 384 1775 384 
Q 2178 384 2440 643 
Q 2703 903 2703 1303 
Q 2703 1709 2433 1975 
Q 2163 2241 1756 2241 
Q 1359 2241 1098 1978 
Q 838 1716 838 1322 
z
" transform="scale(0.015625)"/>
       </defs>
       <use xlink:href="#ArialMT-38"/>
      </g>
     </g>
    </g>
    <g id="xtick_5">
     <g id="line2d_5">
      <path d="M 350.191444 334.8 
L 350.191444 43.2 
" clip-path="url(#pe8f19a3eef)" style="fill: none; stroke: #cbcbcb"/>
     </g>
     <g id="text_5">
      <!-- 10 -->
      <g style="fill: #262626" transform="translate(344.074413 349.673594)scale(0.11 -0.11)">
       <defs>
        <path id="ArialMT-31" d="M 2384 0 
L 1822 0 
L 1822 3584 
Q 1619 3391 1289 3197 
Q 959 3003 697 2906 
L 697 3450 
Q 1169 3672 1522 3987 
Q 1875 4303 2022 4600 
L 2384 4600 
L 2384 0 
z
" transform="scale(0.015625)"/>
        <path id="ArialMT-30" d="M 266 2259 
Q 266 3072 433 3567 
Q 600 4063 929 4331 
Q 1259 4600 1759 4600 
Q 2128 4600 2406 4451 
Q 2684 4303 2865 4023 
Q 3047 3744 3150 3342 
Q 3253 2941 3253 2259 
Q 3253 1453 3087 958 
Q 2922 463 2592 192 
Q 2263 -78 1759 -78 
Q 1097 -78 719 397 
Q 266 969 266 2259 
z
M 844 2259 
Q 844 1131 1108 757 
Q 1372 384 1759 384 
Q 2147 384 2411 759 
Q 2675 1134 2675 2259 
Q 2675 3391 2411 3762 
Q 2147 4134 1753 4134 
Q 1366 4134 1134 3806 
Q 844 3388 844 2259 
z
" transform="scale(0.015625)"/>
       </defs>
       <use xlink:href="#ArialMT-31"/>
       <use xlink:href="#ArialMT-30" x="55.615234"/>
      </g>
     </g>
    </g>
    <g id="text_6">
     <!-- Reizes -->
     <g style="fill: #262626" transform="translate(198.901346 367.884969)scale(0.168 -0.168)">
      <defs>
       <path id="ArialMT-52" d="M 503 0 
L 503 4581 
L 2534 4581 
Q 3147 4581 3465 4457 
Q 3784 4334 3975 4021 
Q 4166 3709 4166 3331 
Q 4166 2844 3850 2509 
Q 3534 2175 2875 2084 
Q 3116 1969 3241 1856 
Q 3506 1613 3744 1247 
L 4541 0 
L 3778 0 
L 3172 953 
Q 2906 1366 2734 1584 
Q 2563 1803 2427 1890 
Q 2291 1978 2150 2013 
Q 2047 2034 1813 2034 
L 1109 2034 
L 1109 0 
L 503 0 
z
M 1109 2559 
L 2413 2559 
Q 2828 2559 3062 2645 
Q 3297 2731 3419 2920 
Q 3541 3109 3541 3331 
Q 3541 3656 3305 3865 
Q 3069 4075 2559 4075 
L 1109 4075 
L 1109 2559 
z
" transform="scale(0.015625)"/>
       <path id="ArialMT-65" d="M 2694 1069 
L 3275 997 
Q 3138 488 2766 206 
Q 2394 -75 1816 -75 
Q 1088 -75 661 373 
Q 234 822 234 1631 
Q 234 2469 665 2931 
Q 1097 3394 1784 3394 
Q 2450 3394 2872 2941 
Q 3294 2488 3294 1666 
Q 3294 1616 3291 1516 
L 816 1516 
Q 847 969 1125 678 
Q 1403 388 1819 388 
Q 2128 388 2347 550 
Q 2566 713 2694 1069 
z
M 847 1978 
L 2700 1978 
Q 2663 2397 2488 2606 
Q 2219 2931 1791 2931 
Q 1403 2931 1139 2672 
Q 875 2413 847 1978 
z
" transform="scale(0.015625)"/>
       <path id="ArialMT-69" d="M 425 3934 
L 425 4581 
L 988 4581 
L 988 3934 
L 425 3934 
z
M 425 0 
L 425 3319 
L 988 3319 
L 988 0 
L 425 0 
z
" transform="scale(0.015625)"/>
       <path id="ArialMT-7a" d="M 125 0 
L 125 456 
L 2238 2881 
Q 1878 2863 1603 2863 
L 250 2863 
L 250 3319 
L 2963 3319 
L 2963 2947 
L 1166 841 
L 819 456 
Q 1197 484 1528 484 
L 3063 484 
L 3063 0 
L 125 0 
z
" transform="scale(0.015625)"/>
       <path id="ArialMT-73" d="M 197 991 
L 753 1078 
Q 800 744 1014 566 
Q 1228 388 1613 388 
Q 2000 388 2187 545 
Q 2375 703 2375 916 
Q 2375 1106 2209 1216 
Q 2094 1291 1634 1406 
Q 1016 1563 777 1677 
Q 538 1791 414 1992 
Q 291 2194 291 2438 
Q 291 2659 392 2848 
Q 494 3038 669 3163 
Q 800 3259 1026 3326 
Q 1253 3394 1513 3394 
Q 1903 3394 2198 3281 
Q 2494 3169 2634 2976 
Q 2775 2784 2828 2463 
L 2278 2388 
Q 2241 2644 2061 2787 
Q 1881 2931 1553 2931 
Q 1166 2931 1000 2803 
Q 834 2675 834 2503 
Q 834 2394 903 2306 
Q 972 2216 1119 2156 
Q 1203 2125 1616 2013 
Q 2213 1853 2448 1751 
Q 2684 1650 2818 1456 
Q 2953 1263 2953 975 
Q 2953 694 2789 445 
Q 2625 197 2315 61 
Q 2006 -75 1616 -75 
Q 969 -75 630 194 
Q 291 463 197 991 
z
" transform="scale(0.015625)"/>
      </defs>
      <use xlink:href="#ArialMT-52"/>
      <use xlink:href="#ArialMT-65" x="72.216797"/>
      <use xlink:href="#ArialMT-69" x="127.832031"/>
      <use xlink:href="#ArialMT-7a" x="150.048828"/>
      <use xlink:href="#ArialMT-65" x="200.048828"/>
      <use xlink:href="#ArialMT-73" x="255.664062"/>
     </g>
    </g>
   </g>
   <g id="matplotlib.axis_2">
    <g id="ytick_1">
     <g id="line2d_6">
      <path d="M 86.4 334.8 
L 362.752941 334.8 
" clip-path="url(#pe8f19a3eef)" style="fill: none; stroke: #cbcbcb"/>
     </g>
     <g id="text_7">
      <!-- 0.0 -->
      <g style="fill: #262626" transform="translate(64.11 338.736797)scale(0.11 -0.11)">
       <defs>
        <path id="ArialMT-2e" d="M 581 0 
L 581 641 
L 1222 641 
L 1222 0 
L 581 0 
z
" transform="scale(0.015625)"/>
       </defs>
       <use xlink:href="#ArialMT-30"/>
       <use xlink:href="#ArialMT-2e" x="55.615234"/>
       <use xlink:href="#ArialMT-30" x="83.398438"/>
      </g>
     </g>
    </g>
    <g id="ytick_2">
     <g id="line2d_7">
      <path d="M 86.4 300.085714 
L 362.752941 300.085714 
" clip-path="url(#pe8f19a3eef)" style="fill: none; stroke: #cbcbcb"/>
     </g>
     <g id="text_8">
      <!-- 2.5 -->
      <g style="fill: #262626" transform="translate(64.11 304.022511)scale(0.11 -0.11)">
       <defs>
        <path id="ArialMT-35" d="M 266 1200 
L 856 1250 
Q 922 819 1161 601 
Q 1400 384 1738 384 
Q 2144 384 2425 690 
Q 2706 997 2706 1503 
Q 2706 1984 2436 2262 
Q 2166 2541 1728 2541 
Q 1456 2541 1237 2417 
Q 1019 2294 894 2097 
L 366 2166 
L 809 4519 
L 3088 4519 
L 3088 3981 
L 1259 3981 
L 1013 2750 
Q 1425 3038 1878 3038 
Q 2478 3038 2890 2622 
Q 3303 2206 3303 1553 
Q 3303 931 2941 478 
Q 2500 -78 1738 -78 
Q 1113 -78 717 272 
Q 322 622 266 1200 
z
" transform="scale(0.015625)"/>
       </defs>
       <use xlink:href="#ArialMT-32"/>
       <use xlink:href="#ArialMT-2e" x="55.615234"/>
       <use xlink:href="#ArialMT-35" x="83.398438"/>
      </g>
     </g>
    </g>
    <g id="ytick_3">
     <g id="line2d_8">
      <path d="M 86.4 265.371429 
L 362.752941 265.371429 
" clip-path="url(#pe8f19a3eef)" style="fill: none; stroke: #cbcbcb"/>
     </g>
     <g id="text_9">
      <!-- 5.0 -->
      <g style="fill: #262626" transform="translate(64.11 269.308225)scale(0.11 -0.11)">
       <use xlink:href="#ArialMT-35"/>
       <use xlink:href="#ArialMT-2e" x="55.615234"/>
       <use xlink:href="#ArialMT-30" x="83.398438"/>
      </g>
     </g>
    </g>
    <g id="ytick_4">
     <g id="line2d_9">
      <path d="M 86.4 230.657143 
L 362.752941 230.657143 
" clip-path="url(#pe8f19a3eef)" style="fill: none; stroke: #cbcbcb"/>
     </g>
     <g id="text_10">
      <!-- 7.5 -->
      <g style="fill: #262626" transform="translate(64.11 234.59394)scale(0.11 -0.11)">
       <defs>
        <path id="ArialMT-37" d="M 303 3981 
L 303 4522 
L 3269 4522 
L 3269 4084 
Q 2831 3619 2401 2847 
Q 1972 2075 1738 1259 
Q 1569 684 1522 0 
L 944 0 
Q 953 541 1156 1306 
Q 1359 2072 1739 2783 
Q 2119 3494 2547 3981 
L 303 3981 
z
" transform="scale(0.015625)"/>
       </defs>
       <use xlink:href="#ArialMT-37"/>
       <use xlink:href="#ArialMT-2e" x="55.615234"/>
       <use xlink:href="#ArialMT-35" x="83.398438"/>
      </g>
     </g>
    </g>
    <g id="ytick_5">
     <g id="line2d_10">
      <path d="M 86.4 195.942857 
L 362.752941 195.942857 
" clip-path="url(#pe8f19a3eef)" style="fill: none; stroke: #cbcbcb"/>
     </g>
     <g id="text_11">
      <!-- 10.0 -->
      <g style="fill: #262626" transform="translate(57.992969 199.879654)scale(0.11 -0.11)">
       <use xlink:href="#ArialMT-31"/>
       <use xlink:href="#ArialMT-30" x="55.615234"/>
       <use xlink:href="#ArialMT-2e" x="111.230469"/>
       <use xlink:href="#ArialMT-30" x="139.013672"/>
      </g>
     </g>
    </g>
    <g id="ytick_6">
     <g id="line2d_11">
      <path d="M 86.4 161.228571 
L 362.752941 161.228571 
" clip-path="url(#pe8f19a3eef)" style="fill: none; stroke: #cbcbcb"/>
     </g>
     <g id="text_12">
      <!-- 12.5 -->
      <g style="fill: #262626" transform="translate(57.992969 165.165368)scale(0.11 -0.11)">
       <use xlink:href="#ArialMT-31"/>
       <use xlink:href="#ArialMT-32" x="55.615234"/>
       <use xlink:href="#ArialMT-2e" x="111.230469"/>
       <use xlink:href="#ArialMT-35" x="139.013672"/>
      </g>
     </g>
    </g>
    <g id="ytick_7">
     <g id="line2d_12">
      <path d="M 86.4 126.514286 
L 362.752941 126.514286 
" clip-path="url(#pe8f19a3eef)" style="fill: none; stroke: #cbcbcb"/>
     </g>
     <g id="text_13">
      <!-- 15.0 -->
      <g style="fill: #262626" transform="translate(57.992969 130.451083)scale(0.11 -0.11)">
       <use xlink:href="#ArialMT-31"/>
       <use xlink:href="#ArialMT-35" x="55.615234"/>
       <use xlink:href="#ArialMT-2e" x="111.230469"/>
       <use xlink:href="#ArialMT-30" x="139.013672"/>
      </g>
     </g>
    </g>
    <g id="ytick_8">
     <g id="line2d_13">
      <path d="M 86.4 91.8 
L 362.752941 91.8 
" clip-path="url(#pe8f19a3eef)" style="fill: none; stroke: #cbcbcb"/>
     </g>
     <g id="text_14">
      <!-- 17.5 -->
      <g style="fill: #262626" transform="translate(57.992969 95.736797)scale(0.11 -0.11)">
       <use xlink:href="#ArialMT-31"/>
       <use xlink:href="#ArialMT-37" x="55.615234"/>
       <use xlink:href="#ArialMT-2e" x="111.230469"/>
       <use xlink:href="#ArialMT-35" x="139.013672"/>
      </g>
     </g>
    </g>
    <g id="ytick_9">
     <g id="line2d_14">
      <path d="M 86.4 57.085714 
L 362.752941 57.085714 
" clip-path="url(#pe8f19a3eef)" style="fill: none; stroke: #cbcbcb"/>
     </g>
     <g id="text_15">
      <!-- 20.0 -->
      <g style="fill: #262626" transform="translate(57.992969 61.022511)scale(0.11 -0.11)">
       <use xlink:href="#ArialMT-32"/>
       <use xlink:href="#ArialMT-30" x="55.615234"/>
       <use xlink:href="#ArialMT-2e" x="111.230469"/>
       <use xlink:href="#ArialMT-30" x="139.013672"/>
      </g>
     </g>
    </g>
   </g>
   <g id="patch_3">
    <path d="M 98.961497 334.8 
L 126.875936 334.8 
L 126.875936 320.914286 
L 98.961497 320.914286 
z
" clip-path="url(#pe8f19a3eef)" style="fill: #4c72b0; opacity: 0.4; stroke: #f0f0f0; stroke-width: 0.5; stroke-linejoin: miter"/>
   </g>
   <g id="patch_4">
    <path d="M 126.875936 334.8 
L 154.790374 334.8 
L 154.790374 320.914286 
L 126.875936 320.914286 
z
" clip-path="url(#pe8f19a3eef)" style="fill: #4c72b0; opacity: 0.4; stroke: #f0f0f0; stroke-width: 0.5; stroke-linejoin: miter"/>
   </g>
   <g id="patch_5">
    <path d="M 154.790374 334.8 
L 182.704813 334.8 
L 182.704813 223.714286 
L 154.790374 223.714286 
z
" clip-path="url(#pe8f19a3eef)" style="fill: #4c72b0; opacity: 0.4; stroke: #f0f0f0; stroke-width: 0.5; stroke-linejoin: miter"/>
   </g>
   <g id="patch_6">
    <path d="M 182.704813 334.8 
L 210.619251 334.8 
L 210.619251 112.628571 
L 182.704813 112.628571 
z
" clip-path="url(#pe8f19a3eef)" style="fill: #4c72b0; opacity: 0.4; stroke: #f0f0f0; stroke-width: 0.5; stroke-linejoin: miter"/>
   </g>
   <g id="patch_7">
    <path d="M 210.619251 334.8 
L 238.53369 334.8 
L 238.53369 57.085714 
L 210.619251 57.085714 
z
" clip-path="url(#pe8f19a3eef)" style="fill: #4c72b0; opacity: 0.4; stroke: #f0f0f0; stroke-width: 0.5; stroke-linejoin: miter"/>
   </g>
   <g id="patch_8">
    <path d="M 238.53369 334.8 
L 266.448128 334.8 
L 266.448128 168.171429 
L 238.53369 168.171429 
z
" clip-path="url(#pe8f19a3eef)" style="fill: #4c72b0; opacity: 0.4; stroke: #f0f0f0; stroke-width: 0.5; stroke-linejoin: miter"/>
   </g>
   <g id="patch_9">
    <path d="M 266.448128 334.8 
L 294.362567 334.8 
L 294.362567 223.714286 
L 266.448128 223.714286 
z
" clip-path="url(#pe8f19a3eef)" style="fill: #4c72b0; opacity: 0.4; stroke: #f0f0f0; stroke-width: 0.5; stroke-linejoin: miter"/>
   </g>
   <g id="patch_10">
    <path d="M 294.362567 334.8 
L 322.277005 334.8 
L 322.277005 223.714286 
L 294.362567 223.714286 
z
" clip-path="url(#pe8f19a3eef)" style="fill: #4c72b0; opacity: 0.4; stroke: #f0f0f0; stroke-width: 0.5; stroke-linejoin: miter"/>
   </g>
   <g id="patch_11">
    <path d="M 322.277005 334.8 
L 350.191444 334.8 
L 350.191444 320.914286 
L 322.277005 320.914286 
z
" clip-path="url(#pe8f19a3eef)" style="fill: #4c72b0; opacity: 0.4; stroke: #f0f0f0; stroke-width: 0.5; stroke-linejoin: miter"/>
   </g>
   <g id="patch_12">
    <path d="M 86.4 334.8 
L 86.4 43.2 
" style="fill: none; stroke: #f0f0f0; stroke-width: 3; stroke-linejoin: miter; stroke-linecap: square"/>
   </g>
   <g id="patch_13">
    <path d="M 362.752941 334.8 
L 362.752941 43.2 
" style="fill: none; stroke: #f0f0f0; stroke-width: 3; stroke-linejoin: miter; stroke-linecap: square"/>
   </g>
   <g id="patch_14">
    <path d="M 86.4 334.8 
L 362.752941 334.8 
" style="fill: none; stroke: #f0f0f0; stroke-width: 3; stroke-linejoin: miter; stroke-linecap: square"/>
   </g>
   <g id="patch_15">
    <path d="M 86.4 43.2 
L 362.752941 43.2 
" style="fill: none; stroke: #f0f0f0; stroke-width: 3; stroke-linejoin: miter; stroke-linecap: square"/>
   </g>
   <g id="text_16">
    <!-- Reizes | Distplot -->
    <g style="fill: #262626" transform="translate(151.935896 37.2)scale(0.2016 -0.2016)">
     <defs>
      <path id="ArialMT-20" transform="scale(0.015625)"/>
      <path id="ArialMT-7c" d="M 588 -1347 
L 588 4659 
L 1078 4659 
L 1078 -1347 
L 588 -1347 
z
" transform="scale(0.015625)"/>
      <path id="ArialMT-44" d="M 494 0 
L 494 4581 
L 2072 4581 
Q 2606 4581 2888 4516 
Q 3281 4425 3559 4188 
Q 3922 3881 4101 3404 
Q 4281 2928 4281 2316 
Q 4281 1794 4159 1391 
Q 4038 988 3847 723 
Q 3656 459 3429 307 
Q 3203 156 2883 78 
Q 2563 0 2147 0 
L 494 0 
z
M 1100 541 
L 2078 541 
Q 2531 541 2789 625 
Q 3047 709 3200 863 
Q 3416 1078 3536 1442 
Q 3656 1806 3656 2325 
Q 3656 3044 3420 3430 
Q 3184 3816 2847 3947 
Q 2603 4041 2063 4041 
L 1100 4041 
L 1100 541 
z
" transform="scale(0.015625)"/>
      <path id="ArialMT-74" d="M 1650 503 
L 1731 6 
Q 1494 -44 1306 -44 
Q 1000 -44 831 53 
Q 663 150 594 308 
Q 525 466 525 972 
L 525 2881 
L 113 2881 
L 113 3319 
L 525 3319 
L 525 4141 
L 1084 4478 
L 1084 3319 
L 1650 3319 
L 1650 2881 
L 1084 2881 
L 1084 941 
Q 1084 700 1114 631 
Q 1144 563 1211 522 
Q 1278 481 1403 481 
Q 1497 481 1650 503 
z
" transform="scale(0.015625)"/>
      <path id="ArialMT-70" d="M 422 -1272 
L 422 3319 
L 934 3319 
L 934 2888 
Q 1116 3141 1344 3267 
Q 1572 3394 1897 3394 
Q 2322 3394 2647 3175 
Q 2972 2956 3137 2557 
Q 3303 2159 3303 1684 
Q 3303 1175 3120 767 
Q 2938 359 2589 142 
Q 2241 -75 1856 -75 
Q 1575 -75 1351 44 
Q 1128 163 984 344 
L 984 -1272 
L 422 -1272 
z
M 931 1641 
Q 931 1000 1190 694 
Q 1450 388 1819 388 
Q 2194 388 2461 705 
Q 2728 1022 2728 1688 
Q 2728 2322 2467 2637 
Q 2206 2953 1844 2953 
Q 1484 2953 1207 2617 
Q 931 2281 931 1641 
z
" transform="scale(0.015625)"/>
      <path id="ArialMT-6c" d="M 409 0 
L 409 4581 
L 972 4581 
L 972 0 
L 409 0 
z
" transform="scale(0.015625)"/>
      <path id="ArialMT-6f" d="M 213 1659 
Q 213 2581 725 3025 
Q 1153 3394 1769 3394 
Q 2453 3394 2887 2945 
Q 3322 2497 3322 1706 
Q 3322 1066 3130 698 
Q 2938 331 2570 128 
Q 2203 -75 1769 -75 
Q 1072 -75 642 372 
Q 213 819 213 1659 
z
M 791 1659 
Q 791 1022 1069 705 
Q 1347 388 1769 388 
Q 2188 388 2466 706 
Q 2744 1025 2744 1678 
Q 2744 2294 2464 2611 
Q 2184 2928 1769 2928 
Q 1347 2928 1069 2612 
Q 791 2297 791 1659 
z
" transform="scale(0.015625)"/>
     </defs>
     <use xlink:href="#ArialMT-52"/>
     <use xlink:href="#ArialMT-65" x="72.216797"/>
     <use xlink:href="#ArialMT-69" x="127.832031"/>
     <use xlink:href="#ArialMT-7a" x="150.048828"/>
     <use xlink:href="#ArialMT-65" x="200.048828"/>
     <use xlink:href="#ArialMT-73" x="255.664062"/>
     <use xlink:href="#ArialMT-20" x="305.664062"/>
     <use xlink:href="#ArialMT-7c" x="333.447266"/>
     <use xlink:href="#ArialMT-20" x="359.423828"/>
     <use xlink:href="#ArialMT-44" x="387.207031"/>
     <use xlink:href="#ArialMT-69" x="459.423828"/>
     <use xlink:href="#ArialMT-73" x="481.640625"/>
     <use xlink:href="#ArialMT-74" x="531.640625"/>
     <use xlink:href="#ArialMT-70" x="559.423828"/>
     <use xlink:href="#ArialMT-6c" x="615.039062"/>
     <use xlink:href="#ArialMT-6f" x="637.255859"/>
     <use xlink:href="#ArialMT-74" x="692.871094"/>
    </g>
   </g>
  </g>
  <g id="axes_2">
   <g id="patch_16">
    <path d="M 418.023529 334.8 
L 694.376471 334.8 
L 694.376471 43.2 
L 418.023529 43.2 
z
" style="fill: #f0f0f0"/>
   </g>
   <g id="matplotlib.axis_3">
    <g id="xtick_6">
     <g id="line2d_15">
      <path d="M 430.585027 334.8 
L 430.585027 43.2 
" clip-path="url(#pfc0b9209c5)" style="fill: none; stroke: #cbcbcb"/>
     </g>
     <g id="text_17">
      <!-- 2 -->
      <g style="fill: #262626" transform="translate(427.526511 349.673594)scale(0.11 -0.11)">
       <use xlink:href="#ArialMT-32"/>
      </g>
     </g>
    </g>
    <g id="xtick_7">
     <g id="line2d_16">
      <path d="M 493.392513 334.8 
L 493.392513 43.2 
" clip-path="url(#pfc0b9209c5)" style="fill: none; stroke: #cbcbcb"/>
     </g>
     <g id="text_18">
      <!-- 4 -->
      <g style="fill: #262626" transform="translate(490.333998 349.673594)scale(0.11 -0.11)">
       <use xlink:href="#ArialMT-34"/>
      </g>
     </g>
    </g>
    <g id="xtick_8">
     <g id="line2d_17">
      <path d="M 556.2 334.8 
L 556.2 43.2 
" clip-path="url(#pfc0b9209c5)" style="fill: none; stroke: #cbcbcb"/>
     </g>
     <g id="text_19">
      <!-- 6 -->
      <g style="fill: #262626" transform="translate(553.141484 349.673594)scale(0.11 -0.11)">
       <use xlink:href="#ArialMT-36"/>
      </g>
     </g>
    </g>
    <g id="xtick_9">
     <g id="line2d_18">
      <path d="M 619.007487 334.8 
L 619.007487 43.2 
" clip-path="url(#pfc0b9209c5)" style="fill: none; stroke: #cbcbcb"/>
     </g>
     <g id="text_20">
      <!-- 8 -->
      <g style="fill: #262626" transform="translate(615.948971 349.673594)scale(0.11 -0.11)">
       <use xlink:href="#ArialMT-38"/>
      </g>
     </g>
    </g>
    <g id="xtick_10">
     <g id="line2d_19">
      <path d="M 681.814973 334.8 
L 681.814973 43.2 
" clip-path="url(#pfc0b9209c5)" style="fill: none; stroke: #cbcbcb"/>
     </g>
     <g id="text_21">
      <!-- 10 -->
      <g style="fill: #262626" transform="translate(675.697942 349.673594)scale(0.11 -0.11)">
       <use xlink:href="#ArialMT-31"/>
       <use xlink:href="#ArialMT-30" x="55.615234"/>
      </g>
     </g>
    </g>
    <g id="text_22">
     <!-- Reizes -->
     <g style="fill: #262626" transform="translate(530.524875 367.884969)scale(0.168 -0.168)">
      <use xlink:href="#ArialMT-52"/>
      <use xlink:href="#ArialMT-65" x="72.216797"/>
      <use xlink:href="#ArialMT-69" x="127.832031"/>
      <use xlink:href="#ArialMT-7a" x="150.048828"/>
      <use xlink:href="#ArialMT-65" x="200.048828"/>
      <use xlink:href="#ArialMT-73" x="255.664062"/>
     </g>
    </g>
   </g>
   <g id="matplotlib.axis_4"/>
   <g id="patch_17">
    <path d="M 524.796257 72.36 
L 524.796257 305.64 
L 587.603743 305.64 
L 587.603743 72.36 
L 524.796257 72.36 
z
" clip-path="url(#pfc0b9209c5)" style="fill: #5875a4; stroke: #4c4c4c; stroke-width: 4; stroke-linejoin: miter"/>
   </g>
   <g id="line2d_20">
    <path d="M 524.796257 189 
L 430.585027 189 
" clip-path="url(#pfc0b9209c5)" style="fill: none; stroke: #4c4c4c; stroke-width: 4"/>
   </g>
   <g id="line2d_21">
    <path d="M 587.603743 189 
L 681.814973 189 
" clip-path="url(#pfc0b9209c5)" style="fill: none; stroke: #4c4c4c; stroke-width: 4"/>
   </g>
   <g id="line2d_22">
    <path d="M 430.585027 130.68 
L 430.585027 247.32 
" clip-path="url(#pfc0b9209c5)" style="fill: none; stroke: #4c4c4c; stroke-width: 4"/>
   </g>
   <g id="line2d_23">
    <path d="M 681.814973 130.68 
L 681.814973 247.32 
" clip-path="url(#pfc0b9209c5)" style="fill: none; stroke: #4c4c4c; stroke-width: 4"/>
   </g>
   <g id="line2d_24"/>
   <g id="line2d_25">
    <path d="M 556.2 72.36 
L 556.2 305.64 
" clip-path="url(#pfc0b9209c5)" style="fill: none; stroke: #4c4c4c; stroke-width: 4"/>
   </g>
   <g id="patch_18">
    <path d="M 418.023529 334.8 
L 418.023529 43.2 
" style="fill: none; stroke: #f0f0f0; stroke-width: 3; stroke-linejoin: miter; stroke-linecap: square"/>
   </g>
   <g id="patch_19">
    <path d="M 694.376471 334.8 
L 694.376471 43.2 
" style="fill: none; stroke: #f0f0f0; stroke-width: 3; stroke-linejoin: miter; stroke-linecap: square"/>
   </g>
   <g id="patch_20">
    <path d="M 418.023529 334.8 
L 694.376471 334.8 
" style="fill: none; stroke: #f0f0f0; stroke-width: 3; stroke-linejoin: miter; stroke-linecap: square"/>
   </g>
   <g id="patch_21">
    <path d="M 418.023529 43.2 
L 694.376471 43.2 
" style="fill: none; stroke: #f0f0f0; stroke-width: 3; stroke-linejoin: miter; stroke-linecap: square"/>
   </g>
   <g id="text_23">
    <!-- Reizes | Boxplot -->
    <g style="fill: #262626" transform="translate(483.549975 37.2)scale(0.2016 -0.2016)">
     <defs>
      <path id="ArialMT-42" d="M 469 0 
L 469 4581 
L 2188 4581 
Q 2713 4581 3030 4442 
Q 3347 4303 3526 4014 
Q 3706 3725 3706 3409 
Q 3706 3116 3547 2856 
Q 3388 2597 3066 2438 
Q 3481 2316 3704 2022 
Q 3928 1728 3928 1328 
Q 3928 1006 3792 729 
Q 3656 453 3456 303 
Q 3256 153 2954 76 
Q 2653 0 2216 0 
L 469 0 
z
M 1075 2656 
L 2066 2656 
Q 2469 2656 2644 2709 
Q 2875 2778 2992 2937 
Q 3109 3097 3109 3338 
Q 3109 3566 3000 3739 
Q 2891 3913 2687 3977 
Q 2484 4041 1991 4041 
L 1075 4041 
L 1075 2656 
z
M 1075 541 
L 2216 541 
Q 2509 541 2628 563 
Q 2838 600 2978 687 
Q 3119 775 3209 942 
Q 3300 1109 3300 1328 
Q 3300 1584 3169 1773 
Q 3038 1963 2805 2039 
Q 2572 2116 2134 2116 
L 1075 2116 
L 1075 541 
z
" transform="scale(0.015625)"/>
      <path id="ArialMT-78" d="M 47 0 
L 1259 1725 
L 138 3319 
L 841 3319 
L 1350 2541 
Q 1494 2319 1581 2169 
Q 1719 2375 1834 2534 
L 2394 3319 
L 3066 3319 
L 1919 1756 
L 3153 0 
L 2463 0 
L 1781 1031 
L 1600 1309 
L 728 0 
L 47 0 
z
" transform="scale(0.015625)"/>
     </defs>
     <use xlink:href="#ArialMT-52"/>
     <use xlink:href="#ArialMT-65" x="72.216797"/>
     <use xlink:href="#ArialMT-69" x="127.832031"/>
     <use xlink:href="#ArialMT-7a" x="150.048828"/>
     <use xlink:href="#ArialMT-65" x="200.048828"/>
     <use xlink:href="#ArialMT-73" x="255.664062"/>
     <use xlink:href="#ArialMT-20" x="305.664062"/>
     <use xlink:href="#ArialMT-7c" x="333.447266"/>
     <use xlink:href="#ArialMT-20" x="359.423828"/>
     <use xlink:href="#ArialMT-42" x="387.207031"/>
     <use xlink:href="#ArialMT-6f" x="453.90625"/>
     <use xlink:href="#ArialMT-78" x="509.521484"/>
     <use xlink:href="#ArialMT-70" x="559.521484"/>
     <use xlink:href="#ArialMT-6c" x="615.136719"/>
     <use xlink:href="#ArialMT-6f" x="637.353516"/>
     <use xlink:href="#ArialMT-74" x="692.96875"/>
    </g>
   </g>
  </g>
  <g id="axes_3">
   <g id="patch_22">
    <path d="M 749.647059 334.8 
L 1026 334.8 
L 1026 43.2 
L 749.647059 43.2 
z
" style="fill: #f0f0f0"/>
   </g>
   <g id="matplotlib.axis_5">
    <g id="xtick_11">
     <g id="line2d_26">
      <path d="M 781.256984 334.8 
L 781.256984 43.2 
" clip-path="url(#p65481e6ae0)" style="fill: none; stroke: #cbcbcb"/>
     </g>
     <g id="text_24">
      <!-- −2 -->
      <g style="fill: #262626" transform="translate(774.986125 349.673594)scale(0.11 -0.11)">
       <defs>
        <path id="ArialMT-2212" d="M 3381 1997 
L 356 1997 
L 356 2522 
L 3381 2522 
L 3381 1997 
z
" transform="scale(0.015625)"/>
       </defs>
       <use xlink:href="#ArialMT-2212"/>
       <use xlink:href="#ArialMT-32" x="58.398438"/>
      </g>
     </g>
    </g>
    <g id="xtick_12">
     <g id="line2d_27">
      <path d="M 834.540257 334.8 
L 834.540257 43.2 
" clip-path="url(#p65481e6ae0)" style="fill: none; stroke: #cbcbcb"/>
     </g>
     <g id="text_25">
      <!-- −1 -->
      <g style="fill: #262626" transform="translate(828.269397 349.673594)scale(0.11 -0.11)">
       <use xlink:href="#ArialMT-2212"/>
       <use xlink:href="#ArialMT-31" x="58.398438"/>
      </g>
     </g>
    </g>
    <g id="xtick_13">
     <g id="line2d_28">
      <path d="M 887.823529 334.8 
L 887.823529 43.2 
" clip-path="url(#p65481e6ae0)" style="fill: none; stroke: #cbcbcb"/>
     </g>
     <g id="text_26">
      <!-- 0 -->
      <g style="fill: #262626" transform="translate(884.765014 349.673594)scale(0.11 -0.11)">
       <use xlink:href="#ArialMT-30"/>
      </g>
     </g>
    </g>
    <g id="xtick_14">
     <g id="line2d_29">
      <path d="M 941.106802 334.8 
L 941.106802 43.2 
" clip-path="url(#p65481e6ae0)" style="fill: none; stroke: #cbcbcb"/>
     </g>
     <g id="text_27">
      <!-- 1 -->
      <g style="fill: #262626" transform="translate(938.048286 349.673594)scale(0.11 -0.11)">
       <use xlink:href="#ArialMT-31"/>
      </g>
     </g>
    </g>
    <g id="xtick_15">
     <g id="line2d_30">
      <path d="M 994.390075 334.8 
L 994.390075 43.2 
" clip-path="url(#p65481e6ae0)" style="fill: none; stroke: #cbcbcb"/>
     </g>
     <g id="text_28">
      <!-- 2 -->
      <g style="fill: #262626" transform="translate(991.331559 349.673594)scale(0.11 -0.11)">
       <use xlink:href="#ArialMT-32"/>
      </g>
     </g>
    </g>
    <g id="text_29">
     <!-- Theoretical quantiles -->
     <g style="fill: #262626" transform="translate(810.317779 367.884969)scale(0.168 -0.168)">
      <defs>
       <path id="ArialMT-54" d="M 1659 0 
L 1659 4041 
L 150 4041 
L 150 4581 
L 3781 4581 
L 3781 4041 
L 2266 4041 
L 2266 0 
L 1659 0 
z
" transform="scale(0.015625)"/>
       <path id="ArialMT-68" d="M 422 0 
L 422 4581 
L 984 4581 
L 984 2938 
Q 1378 3394 1978 3394 
Q 2347 3394 2619 3248 
Q 2891 3103 3008 2847 
Q 3125 2591 3125 2103 
L 3125 0 
L 2563 0 
L 2563 2103 
Q 2563 2525 2380 2717 
Q 2197 2909 1863 2909 
Q 1613 2909 1392 2779 
Q 1172 2650 1078 2428 
Q 984 2206 984 1816 
L 984 0 
L 422 0 
z
" transform="scale(0.015625)"/>
       <path id="ArialMT-72" d="M 416 0 
L 416 3319 
L 922 3319 
L 922 2816 
Q 1116 3169 1280 3281 
Q 1444 3394 1641 3394 
Q 1925 3394 2219 3213 
L 2025 2691 
Q 1819 2813 1613 2813 
Q 1428 2813 1281 2702 
Q 1134 2591 1072 2394 
Q 978 2094 978 1738 
L 978 0 
L 416 0 
z
" transform="scale(0.015625)"/>
       <path id="ArialMT-63" d="M 2588 1216 
L 3141 1144 
Q 3050 572 2676 248 
Q 2303 -75 1759 -75 
Q 1078 -75 664 370 
Q 250 816 250 1647 
Q 250 2184 428 2587 
Q 606 2991 970 3192 
Q 1334 3394 1763 3394 
Q 2303 3394 2647 3120 
Q 2991 2847 3088 2344 
L 2541 2259 
Q 2463 2594 2264 2762 
Q 2066 2931 1784 2931 
Q 1359 2931 1093 2626 
Q 828 2322 828 1663 
Q 828 994 1084 691 
Q 1341 388 1753 388 
Q 2084 388 2306 591 
Q 2528 794 2588 1216 
z
" transform="scale(0.015625)"/>
       <path id="ArialMT-61" d="M 2588 409 
Q 2275 144 1986 34 
Q 1697 -75 1366 -75 
Q 819 -75 525 192 
Q 231 459 231 875 
Q 231 1119 342 1320 
Q 453 1522 633 1644 
Q 813 1766 1038 1828 
Q 1203 1872 1538 1913 
Q 2219 1994 2541 2106 
Q 2544 2222 2544 2253 
Q 2544 2597 2384 2738 
Q 2169 2928 1744 2928 
Q 1347 2928 1158 2789 
Q 969 2650 878 2297 
L 328 2372 
Q 403 2725 575 2942 
Q 747 3159 1072 3276 
Q 1397 3394 1825 3394 
Q 2250 3394 2515 3294 
Q 2781 3194 2906 3042 
Q 3031 2891 3081 2659 
Q 3109 2516 3109 2141 
L 3109 1391 
Q 3109 606 3145 398 
Q 3181 191 3288 0 
L 2700 0 
Q 2613 175 2588 409 
z
M 2541 1666 
Q 2234 1541 1622 1453 
Q 1275 1403 1131 1340 
Q 988 1278 909 1158 
Q 831 1038 831 891 
Q 831 666 1001 516 
Q 1172 366 1500 366 
Q 1825 366 2078 508 
Q 2331 650 2450 897 
Q 2541 1088 2541 1459 
L 2541 1666 
z
" transform="scale(0.015625)"/>
       <path id="ArialMT-71" d="M 2538 -1272 
L 2538 353 
Q 2406 169 2170 47 
Q 1934 -75 1669 -75 
Q 1078 -75 651 397 
Q 225 869 225 1691 
Q 225 2191 398 2587 
Q 572 2984 901 3189 
Q 1231 3394 1625 3394 
Q 2241 3394 2594 2875 
L 2594 3319 
L 3100 3319 
L 3100 -1272 
L 2538 -1272 
z
M 803 1669 
Q 803 1028 1072 708 
Q 1341 388 1716 388 
Q 2075 388 2334 692 
Q 2594 997 2594 1619 
Q 2594 2281 2320 2615 
Q 2047 2950 1678 2950 
Q 1313 2950 1058 2639 
Q 803 2328 803 1669 
z
" transform="scale(0.015625)"/>
       <path id="ArialMT-75" d="M 2597 0 
L 2597 488 
Q 2209 -75 1544 -75 
Q 1250 -75 995 37 
Q 741 150 617 320 
Q 494 491 444 738 
Q 409 903 409 1263 
L 409 3319 
L 972 3319 
L 972 1478 
Q 972 1038 1006 884 
Q 1059 663 1231 536 
Q 1403 409 1656 409 
Q 1909 409 2131 539 
Q 2353 669 2445 892 
Q 2538 1116 2538 1541 
L 2538 3319 
L 3100 3319 
L 3100 0 
L 2597 0 
z
" transform="scale(0.015625)"/>
       <path id="ArialMT-6e" d="M 422 0 
L 422 3319 
L 928 3319 
L 928 2847 
Q 1294 3394 1984 3394 
Q 2284 3394 2536 3286 
Q 2788 3178 2913 3003 
Q 3038 2828 3088 2588 
Q 3119 2431 3119 2041 
L 3119 0 
L 2556 0 
L 2556 2019 
Q 2556 2363 2490 2533 
Q 2425 2703 2258 2804 
Q 2091 2906 1866 2906 
Q 1506 2906 1245 2678 
Q 984 2450 984 1813 
L 984 0 
L 422 0 
z
" transform="scale(0.015625)"/>
      </defs>
      <use xlink:href="#ArialMT-54"/>
      <use xlink:href="#ArialMT-68" x="61.083984"/>
      <use xlink:href="#ArialMT-65" x="116.699219"/>
      <use xlink:href="#ArialMT-6f" x="172.314453"/>
      <use xlink:href="#ArialMT-72" x="227.929688"/>
      <use xlink:href="#ArialMT-65" x="261.230469"/>
      <use xlink:href="#ArialMT-74" x="316.845703"/>
      <use xlink:href="#ArialMT-69" x="344.628906"/>
      <use xlink:href="#ArialMT-63" x="366.845703"/>
      <use xlink:href="#ArialMT-61" x="416.845703"/>
      <use xlink:href="#ArialMT-6c" x="472.460938"/>
      <use xlink:href="#ArialMT-20" x="494.677734"/>
      <use xlink:href="#ArialMT-71" x="522.460938"/>
      <use xlink:href="#ArialMT-75" x="578.076172"/>
      <use xlink:href="#ArialMT-61" x="633.691406"/>
      <use xlink:href="#ArialMT-6e" x="689.306641"/>
      <use xlink:href="#ArialMT-74" x="744.921875"/>
      <use xlink:href="#ArialMT-69" x="772.705078"/>
      <use xlink:href="#ArialMT-6c" x="794.921875"/>
      <use xlink:href="#ArialMT-65" x="817.138672"/>
      <use xlink:href="#ArialMT-73" x="872.753906"/>
     </g>
    </g>
   </g>
   <g id="matplotlib.axis_6">
    <g id="ytick_10">
     <g id="line2d_31">
      <path d="M 749.647059 321.545455 
L 1026 321.545455 
" clip-path="url(#p65481e6ae0)" style="fill: none; stroke: #cbcbcb"/>
     </g>
     <g id="text_30">
      <!-- 2 -->
      <g style="fill: #262626" transform="translate(736.530028 325.482251)scale(0.11 -0.11)">
       <use xlink:href="#ArialMT-32"/>
      </g>
     </g>
    </g>
    <g id="ytick_11">
     <g id="line2d_32">
      <path d="M 749.647059 288.821617 
L 1026 288.821617 
" clip-path="url(#p65481e6ae0)" style="fill: none; stroke: #cbcbcb"/>
     </g>
     <g id="text_31">
      <!-- 3 -->
      <g style="fill: #262626" transform="translate(736.530028 292.758413)scale(0.11 -0.11)">
       <defs>
        <path id="ArialMT-33" d="M 269 1209 
L 831 1284 
Q 928 806 1161 595 
Q 1394 384 1728 384 
Q 2125 384 2398 659 
Q 2672 934 2672 1341 
Q 2672 1728 2419 1979 
Q 2166 2231 1775 2231 
Q 1616 2231 1378 2169 
L 1441 2663 
Q 1497 2656 1531 2656 
Q 1891 2656 2178 2843 
Q 2466 3031 2466 3422 
Q 2466 3731 2256 3934 
Q 2047 4138 1716 4138 
Q 1388 4138 1169 3931 
Q 950 3725 888 3313 
L 325 3413 
Q 428 3978 793 4289 
Q 1159 4600 1703 4600 
Q 2078 4600 2393 4439 
Q 2709 4278 2876 4000 
Q 3044 3722 3044 3409 
Q 3044 3113 2884 2869 
Q 2725 2625 2413 2481 
Q 2819 2388 3044 2092 
Q 3269 1797 3269 1353 
Q 3269 753 2831 336 
Q 2394 -81 1725 -81 
Q 1122 -81 723 278 
Q 325 638 269 1209 
z
" transform="scale(0.015625)"/>
       </defs>
       <use xlink:href="#ArialMT-33"/>
      </g>
     </g>
    </g>
    <g id="ytick_12">
     <g id="line2d_33">
      <path d="M 749.647059 256.097779 
L 1026 256.097779 
" clip-path="url(#p65481e6ae0)" style="fill: none; stroke: #cbcbcb"/>
     </g>
     <g id="text_32">
      <!-- 4 -->
      <g style="fill: #262626" transform="translate(736.530028 260.034576)scale(0.11 -0.11)">
       <use xlink:href="#ArialMT-34"/>
      </g>
     </g>
    </g>
    <g id="ytick_13">
     <g id="line2d_34">
      <path d="M 749.647059 223.373941 
L 1026 223.373941 
" clip-path="url(#p65481e6ae0)" style="fill: none; stroke: #cbcbcb"/>
     </g>
     <g id="text_33">
      <!-- 5 -->
      <g style="fill: #262626" transform="translate(736.530028 227.310738)scale(0.11 -0.11)">
       <use xlink:href="#ArialMT-35"/>
      </g>
     </g>
    </g>
    <g id="ytick_14">
     <g id="line2d_35">
      <path d="M 749.647059 190.650103 
L 1026 190.650103 
" clip-path="url(#p65481e6ae0)" style="fill: none; stroke: #cbcbcb"/>
     </g>
     <g id="text_34">
      <!-- 6 -->
      <g style="fill: #262626" transform="translate(736.530028 194.5869)scale(0.11 -0.11)">
       <use xlink:href="#ArialMT-36"/>
      </g>
     </g>
    </g>
    <g id="ytick_15">
     <g id="line2d_36">
      <path d="M 749.647059 157.926265 
L 1026 157.926265 
" clip-path="url(#p65481e6ae0)" style="fill: none; stroke: #cbcbcb"/>
     </g>
     <g id="text_35">
      <!-- 7 -->
      <g style="fill: #262626" transform="translate(736.530028 161.863062)scale(0.11 -0.11)">
       <use xlink:href="#ArialMT-37"/>
      </g>
     </g>
    </g>
    <g id="ytick_16">
     <g id="line2d_37">
      <path d="M 749.647059 125.202427 
L 1026 125.202427 
" clip-path="url(#p65481e6ae0)" style="fill: none; stroke: #cbcbcb"/>
     </g>
     <g id="text_36">
      <!-- 8 -->
      <g style="fill: #262626" transform="translate(736.530028 129.139224)scale(0.11 -0.11)">
       <use xlink:href="#ArialMT-38"/>
      </g>
     </g>
    </g>
    <g id="ytick_17">
     <g id="line2d_38">
      <path d="M 749.647059 92.478589 
L 1026 92.478589 
" clip-path="url(#p65481e6ae0)" style="fill: none; stroke: #cbcbcb"/>
     </g>
     <g id="text_37">
      <!-- 9 -->
      <g style="fill: #262626" transform="translate(736.530028 96.415386)scale(0.11 -0.11)">
       <defs>
        <path id="ArialMT-39" d="M 350 1059 
L 891 1109 
Q 959 728 1153 556 
Q 1347 384 1650 384 
Q 1909 384 2104 503 
Q 2300 622 2425 820 
Q 2550 1019 2634 1356 
Q 2719 1694 2719 2044 
Q 2719 2081 2716 2156 
Q 2547 1888 2255 1720 
Q 1963 1553 1622 1553 
Q 1053 1553 659 1965 
Q 266 2378 266 3053 
Q 266 3750 677 4175 
Q 1088 4600 1706 4600 
Q 2153 4600 2523 4359 
Q 2894 4119 3086 3673 
Q 3278 3228 3278 2384 
Q 3278 1506 3087 986 
Q 2897 466 2520 194 
Q 2144 -78 1638 -78 
Q 1100 -78 759 220 
Q 419 519 350 1059 
z
M 2653 3081 
Q 2653 3566 2395 3850 
Q 2138 4134 1775 4134 
Q 1400 4134 1122 3828 
Q 844 3522 844 3034 
Q 844 2597 1108 2323 
Q 1372 2050 1759 2050 
Q 2150 2050 2401 2323 
Q 2653 2597 2653 3081 
z
" transform="scale(0.015625)"/>
       </defs>
       <use xlink:href="#ArialMT-39"/>
      </g>
     </g>
    </g>
    <g id="ytick_18">
     <g id="line2d_39">
      <path d="M 749.647059 59.754751 
L 1026 59.754751 
" clip-path="url(#p65481e6ae0)" style="fill: none; stroke: #cbcbcb"/>
     </g>
     <g id="text_38">
      <!-- 10 -->
      <g style="fill: #262626" transform="translate(730.412996 63.691548)scale(0.11 -0.11)">
       <use xlink:href="#ArialMT-31"/>
       <use xlink:href="#ArialMT-30" x="55.615234"/>
      </g>
     </g>
    </g>
    <g id="text_39">
     <!-- Ordered Values -->
     <g style="fill: #262626" transform="translate(723.073996 247.209375)rotate(-90)scale(0.168 -0.168)">
      <defs>
       <path id="ArialMT-4f" d="M 309 2231 
Q 309 3372 921 4017 
Q 1534 4663 2503 4663 
Q 3138 4663 3647 4359 
Q 4156 4056 4423 3514 
Q 4691 2972 4691 2284 
Q 4691 1588 4409 1038 
Q 4128 488 3612 205 
Q 3097 -78 2500 -78 
Q 1853 -78 1343 234 
Q 834 547 571 1087 
Q 309 1628 309 2231 
z
M 934 2222 
Q 934 1394 1379 917 
Q 1825 441 2497 441 
Q 3181 441 3623 922 
Q 4066 1403 4066 2288 
Q 4066 2847 3877 3264 
Q 3688 3681 3323 3911 
Q 2959 4141 2506 4141 
Q 1863 4141 1398 3698 
Q 934 3256 934 2222 
z
" transform="scale(0.015625)"/>
       <path id="ArialMT-64" d="M 2575 0 
L 2575 419 
Q 2259 -75 1647 -75 
Q 1250 -75 917 144 
Q 584 363 401 755 
Q 219 1147 219 1656 
Q 219 2153 384 2558 
Q 550 2963 881 3178 
Q 1213 3394 1622 3394 
Q 1922 3394 2156 3267 
Q 2391 3141 2538 2938 
L 2538 4581 
L 3097 4581 
L 3097 0 
L 2575 0 
z
M 797 1656 
Q 797 1019 1065 703 
Q 1334 388 1700 388 
Q 2069 388 2326 689 
Q 2584 991 2584 1609 
Q 2584 2291 2321 2609 
Q 2059 2928 1675 2928 
Q 1300 2928 1048 2622 
Q 797 2316 797 1656 
z
" transform="scale(0.015625)"/>
       <path id="ArialMT-56" d="M 1803 0 
L 28 4581 
L 684 4581 
L 1875 1253 
Q 2019 853 2116 503 
Q 2222 878 2363 1253 
L 3600 4581 
L 4219 4581 
L 2425 0 
L 1803 0 
z
" transform="scale(0.015625)"/>
      </defs>
      <use xlink:href="#ArialMT-4f"/>
      <use xlink:href="#ArialMT-72" x="77.783203"/>
      <use xlink:href="#ArialMT-64" x="111.083984"/>
      <use xlink:href="#ArialMT-65" x="166.699219"/>
      <use xlink:href="#ArialMT-72" x="222.314453"/>
      <use xlink:href="#ArialMT-65" x="255.615234"/>
      <use xlink:href="#ArialMT-64" x="311.230469"/>
      <use xlink:href="#ArialMT-20" x="366.845703"/>
      <use xlink:href="#ArialMT-56" x="394.628906"/>
      <use xlink:href="#ArialMT-61" x="453.953125"/>
      <use xlink:href="#ArialMT-6c" x="509.568359"/>
      <use xlink:href="#ArialMT-75" x="531.785156"/>
      <use xlink:href="#ArialMT-65" x="587.400391"/>
      <use xlink:href="#ArialMT-73" x="643.015625"/>
     </g>
    </g>
   </g>
   <g id="line2d_40">
    <defs>
     <path id="ma3dfd98006" d="M 0 3 
C 0.795609 3 1.55874 2.683901 2.12132 2.12132 
C 2.683901 1.55874 3 0.795609 3 0 
C 3 -0.795609 2.683901 -1.55874 2.12132 -2.12132 
C 1.55874 -2.683901 0.795609 -3 0 -3 
C -0.795609 -3 -1.55874 -2.683901 -2.12132 -2.12132 
C -2.683901 -1.55874 -3 -0.795609 -3 0 
C -3 0.795609 -2.683901 1.55874 -2.12132 2.12132 
C -1.55874 2.683901 -0.795609 3 0 3 
z
"/>
    </defs>
    <g clip-path="url(#p65481e6ae0)">
     <use xlink:href="#ma3dfd98006" x="762.208556" y="321.545455" style="fill: #4c72b0"/>
     <use xlink:href="#ma3dfd98006" x="780.833767" y="288.821617" style="fill: #4c72b0"/>
     <use xlink:href="#ma3dfd98006" x="791.685405" y="256.097779" style="fill: #4c72b0"/>
     <use xlink:href="#ma3dfd98006" x="799.587111" y="256.097779" style="fill: #4c72b0"/>
     <use xlink:href="#ma3dfd98006" x="805.92031" y="256.097779" style="fill: #4c72b0"/>
     <use xlink:href="#ma3dfd98006" x="811.270737" y="256.097779" style="fill: #4c72b0"/>
     <use xlink:href="#ma3dfd98006" x="815.944394" y="256.097779" style="fill: #4c72b0"/>
     <use xlink:href="#ma3dfd98006" x="820.122326" y="256.097779" style="fill: #4c72b0"/>
     <use xlink:href="#ma3dfd98006" x="823.920994" y="256.097779" style="fill: #4c72b0"/>
     <use xlink:href="#ma3dfd98006" x="827.419979" y="256.097779" style="fill: #4c72b0"/>
     <use xlink:href="#ma3dfd98006" x="830.676212" y="223.373941" style="fill: #4c72b0"/>
     <use xlink:href="#ma3dfd98006" x="833.731921" y="223.373941" style="fill: #4c72b0"/>
     <use xlink:href="#ma3dfd98006" x="836.619353" y="223.373941" style="fill: #4c72b0"/>
     <use xlink:href="#ma3dfd98006" x="839.363738" y="223.373941" style="fill: #4c72b0"/>
     <use xlink:href="#ma3dfd98006" x="841.985226" y="223.373941" style="fill: #4c72b0"/>
     <use xlink:href="#ma3dfd98006" x="844.500191" y="223.373941" style="fill: #4c72b0"/>
     <use xlink:href="#ma3dfd98006" x="846.922148" y="223.373941" style="fill: #4c72b0"/>
     <use xlink:href="#ma3dfd98006" x="849.262401" y="223.373941" style="fill: #4c72b0"/>
     <use xlink:href="#ma3dfd98006" x="851.53052" y="223.373941" style="fill: #4c72b0"/>
     <use xlink:href="#ma3dfd98006" x="853.734699" y="223.373941" style="fill: #4c72b0"/>
     <use xlink:href="#ma3dfd98006" x="855.882021" y="223.373941" style="fill: #4c72b0"/>
     <use xlink:href="#ma3dfd98006" x="857.978669" y="223.373941" style="fill: #4c72b0"/>
     <use xlink:href="#ma3dfd98006" x="860.030085" y="223.373941" style="fill: #4c72b0"/>
     <use xlink:href="#ma3dfd98006" x="862.041099" y="223.373941" style="fill: #4c72b0"/>
     <use xlink:href="#ma3dfd98006" x="864.016032" y="223.373941" style="fill: #4c72b0"/>
     <use xlink:href="#ma3dfd98006" x="865.95878" y="223.373941" style="fill: #4c72b0"/>
     <use xlink:href="#ma3dfd98006" x="867.87288" y="190.650103" style="fill: #4c72b0"/>
     <use xlink:href="#ma3dfd98006" x="869.761568" y="190.650103" style="fill: #4c72b0"/>
     <use xlink:href="#ma3dfd98006" x="871.627824" y="190.650103" style="fill: #4c72b0"/>
     <use xlink:href="#ma3dfd98006" x="873.474415" y="190.650103" style="fill: #4c72b0"/>
     <use xlink:href="#ma3dfd98006" x="875.303927" y="190.650103" style="fill: #4c72b0"/>
     <use xlink:href="#ma3dfd98006" x="877.118792" y="190.650103" style="fill: #4c72b0"/>
     <use xlink:href="#ma3dfd98006" x="878.92132" y="190.650103" style="fill: #4c72b0"/>
     <use xlink:href="#ma3dfd98006" x="880.713714" y="190.650103" style="fill: #4c72b0"/>
     <use xlink:href="#ma3dfd98006" x="882.498096" y="190.650103" style="fill: #4c72b0"/>
     <use xlink:href="#ma3dfd98006" x="884.276525" y="190.650103" style="fill: #4c72b0"/>
     <use xlink:href="#ma3dfd98006" x="886.051009" y="190.650103" style="fill: #4c72b0"/>
     <use xlink:href="#ma3dfd98006" x="887.823529" y="190.650103" style="fill: #4c72b0"/>
     <use xlink:href="#ma3dfd98006" x="889.59605" y="190.650103" style="fill: #4c72b0"/>
     <use xlink:href="#ma3dfd98006" x="891.370534" y="190.650103" style="fill: #4c72b0"/>
     <use xlink:href="#ma3dfd98006" x="893.148963" y="190.650103" style="fill: #4c72b0"/>
     <use xlink:href="#ma3dfd98006" x="894.933345" y="190.650103" style="fill: #4c72b0"/>
     <use xlink:href="#ma3dfd98006" x="896.725739" y="190.650103" style="fill: #4c72b0"/>
     <use xlink:href="#ma3dfd98006" x="898.528266" y="190.650103" style="fill: #4c72b0"/>
     <use xlink:href="#ma3dfd98006" x="900.343132" y="190.650103" style="fill: #4c72b0"/>
     <use xlink:href="#ma3dfd98006" x="902.172644" y="190.650103" style="fill: #4c72b0"/>
     <use xlink:href="#ma3dfd98006" x="904.019235" y="157.926265" style="fill: #4c72b0"/>
     <use xlink:href="#ma3dfd98006" x="905.885491" y="157.926265" style="fill: #4c72b0"/>
     <use xlink:href="#ma3dfd98006" x="907.774179" y="157.926265" style="fill: #4c72b0"/>
     <use xlink:href="#ma3dfd98006" x="909.688279" y="157.926265" style="fill: #4c72b0"/>
     <use xlink:href="#ma3dfd98006" x="911.631027" y="157.926265" style="fill: #4c72b0"/>
     <use xlink:href="#ma3dfd98006" x="913.60596" y="157.926265" style="fill: #4c72b0"/>
     <use xlink:href="#ma3dfd98006" x="915.616974" y="157.926265" style="fill: #4c72b0"/>
     <use xlink:href="#ma3dfd98006" x="917.66839" y="157.926265" style="fill: #4c72b0"/>
     <use xlink:href="#ma3dfd98006" x="919.765038" y="157.926265" style="fill: #4c72b0"/>
     <use xlink:href="#ma3dfd98006" x="921.91236" y="157.926265" style="fill: #4c72b0"/>
     <use xlink:href="#ma3dfd98006" x="924.116539" y="157.926265" style="fill: #4c72b0"/>
     <use xlink:href="#ma3dfd98006" x="926.384658" y="157.926265" style="fill: #4c72b0"/>
     <use xlink:href="#ma3dfd98006" x="928.724911" y="125.202427" style="fill: #4c72b0"/>
     <use xlink:href="#ma3dfd98006" x="931.146867" y="125.202427" style="fill: #4c72b0"/>
     <use xlink:href="#ma3dfd98006" x="933.661833" y="125.202427" style="fill: #4c72b0"/>
     <use xlink:href="#ma3dfd98006" x="936.28332" y="125.202427" style="fill: #4c72b0"/>
     <use xlink:href="#ma3dfd98006" x="939.027706" y="125.202427" style="fill: #4c72b0"/>
     <use xlink:href="#ma3dfd98006" x="941.915137" y="125.202427" style="fill: #4c72b0"/>
     <use xlink:href="#ma3dfd98006" x="944.970846" y="125.202427" style="fill: #4c72b0"/>
     <use xlink:href="#ma3dfd98006" x="948.22708" y="125.202427" style="fill: #4c72b0"/>
     <use xlink:href="#ma3dfd98006" x="951.726065" y="92.478589" style="fill: #4c72b0"/>
     <use xlink:href="#ma3dfd98006" x="955.524733" y="92.478589" style="fill: #4c72b0"/>
     <use xlink:href="#ma3dfd98006" x="959.702665" y="92.478589" style="fill: #4c72b0"/>
     <use xlink:href="#ma3dfd98006" x="964.376322" y="92.478589" style="fill: #4c72b0"/>
     <use xlink:href="#ma3dfd98006" x="969.726749" y="92.478589" style="fill: #4c72b0"/>
     <use xlink:href="#ma3dfd98006" x="976.059948" y="92.478589" style="fill: #4c72b0"/>
     <use xlink:href="#ma3dfd98006" x="983.961654" y="92.478589" style="fill: #4c72b0"/>
     <use xlink:href="#ma3dfd98006" x="994.813292" y="92.478589" style="fill: #4c72b0"/>
     <use xlink:href="#ma3dfd98006" x="1013.438503" y="59.754751" style="fill: #4c72b0"/>
    </g>
   </g>
   <g id="line2d_41">
    <path d="M 762.208556 310.010854 
L 780.833767 291.213175 
L 791.685405 280.261052 
L 799.587111 272.286177 
L 805.92031 265.894334 
L 811.270737 260.494362 
L 815.944394 255.777428 
L 820.122326 251.560809 
L 823.920994 247.726966 
L 827.419979 244.195581 
L 830.676212 240.909194 
L 833.731921 237.82519 
L 836.619353 234.911021 
L 839.363738 232.141223 
L 841.985226 229.49546 
L 844.500191 226.957207 
L 846.922148 224.512823 
L 849.262401 222.1509 
L 851.53052 219.861778 
L 853.734699 217.637189 
L 855.882021 215.469982 
L 857.978669 213.35392 
L 860.030085 211.283508 
L 862.041099 209.253873 
L 864.016032 207.260652 
L 865.95878 205.299914 
L 867.87288 203.36809 
L 869.761568 201.461913 
L 871.627824 199.578375 
L 873.474415 197.714685 
L 875.303927 195.868232 
L 877.118792 194.036561 
L 878.92132 192.217343 
L 880.713714 190.408351 
L 882.498096 188.607446 
L 884.276525 186.812549 
L 886.051009 185.021633 
L 887.823529 183.2327 
L 889.59605 181.443766 
L 891.370534 179.65285 
L 893.148963 177.857953 
L 894.933345 176.057048 
L 896.725739 174.248056 
L 898.528266 172.428838 
L 900.343132 170.597167 
L 902.172644 168.750714 
L 904.019235 166.887024 
L 905.885491 165.003486 
L 907.774179 163.097309 
L 909.688279 161.165485 
L 911.631027 159.204747 
L 913.60596 157.211526 
L 915.616974 155.181891 
L 917.66839 153.111479 
L 919.765038 150.995417 
L 921.91236 148.82821 
L 924.116539 146.603621 
L 926.384658 144.314499 
L 928.724911 141.952576 
L 931.146867 139.508192 
L 933.661833 136.969939 
L 936.28332 134.324176 
L 939.027706 131.554378 
L 941.915137 128.640209 
L 944.970846 125.556205 
L 948.22708 122.269818 
L 951.726065 118.738433 
L 955.524733 114.90459 
L 959.702665 110.687971 
L 964.376322 105.971037 
L 969.726749 100.571065 
L 976.059948 94.179222 
L 983.961654 86.204347 
L 994.813292 75.252224 
L 1013.438503 56.454545 
" clip-path="url(#p65481e6ae0)" style="fill: none; stroke: #c44e52; stroke-width: 4"/>
   </g>
   <g id="patch_23">
    <path d="M 749.647059 334.8 
L 749.647059 43.2 
" style="fill: none; stroke: #f0f0f0; stroke-width: 3; stroke-linejoin: miter; stroke-linecap: square"/>
   </g>
   <g id="patch_24">
    <path d="M 1026 334.8 
L 1026 43.2 
" style="fill: none; stroke: #f0f0f0; stroke-width: 3; stroke-linejoin: miter; stroke-linecap: square"/>
   </g>
   <g id="patch_25">
    <path d="M 749.647059 334.8 
L 1026 334.8 
" style="fill: none; stroke: #f0f0f0; stroke-width: 3; stroke-linejoin: miter; stroke-linecap: square"/>
   </g>
   <g id="patch_26">
    <path d="M 749.647059 43.2 
L 1026 43.2 
" style="fill: none; stroke: #f0f0f0; stroke-width: 3; stroke-linejoin: miter; stroke-linecap: square"/>
   </g>
   <g id="text_40">
    <!-- Reizes | Probability Plot - Skew: 0.1 -->
    <g style="fill: #262626" transform="translate(728.345329 37.2)scale(0.2016 -0.2016)">
     <defs>
      <path id="ArialMT-50" d="M 494 0 
L 494 4581 
L 2222 4581 
Q 2678 4581 2919 4538 
Q 3256 4481 3484 4323 
Q 3713 4166 3852 3881 
Q 3991 3597 3991 3256 
Q 3991 2672 3619 2267 
Q 3247 1863 2275 1863 
L 1100 1863 
L 1100 0 
L 494 0 
z
M 1100 2403 
L 2284 2403 
Q 2872 2403 3119 2622 
Q 3366 2841 3366 3238 
Q 3366 3525 3220 3729 
Q 3075 3934 2838 4000 
Q 2684 4041 2272 4041 
L 1100 4041 
L 1100 2403 
z
" transform="scale(0.015625)"/>
      <path id="ArialMT-62" d="M 941 0 
L 419 0 
L 419 4581 
L 981 4581 
L 981 2947 
Q 1338 3394 1891 3394 
Q 2197 3394 2470 3270 
Q 2744 3147 2920 2923 
Q 3097 2700 3197 2384 
Q 3297 2069 3297 1709 
Q 3297 856 2875 390 
Q 2453 -75 1863 -75 
Q 1275 -75 941 416 
L 941 0 
z
M 934 1684 
Q 934 1088 1097 822 
Q 1363 388 1816 388 
Q 2184 388 2453 708 
Q 2722 1028 2722 1663 
Q 2722 2313 2464 2622 
Q 2206 2931 1841 2931 
Q 1472 2931 1203 2611 
Q 934 2291 934 1684 
z
" transform="scale(0.015625)"/>
      <path id="ArialMT-79" d="M 397 -1278 
L 334 -750 
Q 519 -800 656 -800 
Q 844 -800 956 -737 
Q 1069 -675 1141 -563 
Q 1194 -478 1313 -144 
Q 1328 -97 1363 -6 
L 103 3319 
L 709 3319 
L 1400 1397 
Q 1534 1031 1641 628 
Q 1738 1016 1872 1384 
L 2581 3319 
L 3144 3319 
L 1881 -56 
Q 1678 -603 1566 -809 
Q 1416 -1088 1222 -1217 
Q 1028 -1347 759 -1347 
Q 597 -1347 397 -1278 
z
" transform="scale(0.015625)"/>
      <path id="ArialMT-2d" d="M 203 1375 
L 203 1941 
L 1931 1941 
L 1931 1375 
L 203 1375 
z
" transform="scale(0.015625)"/>
      <path id="ArialMT-53" d="M 288 1472 
L 859 1522 
Q 900 1178 1048 958 
Q 1197 738 1509 602 
Q 1822 466 2213 466 
Q 2559 466 2825 569 
Q 3091 672 3220 851 
Q 3350 1031 3350 1244 
Q 3350 1459 3225 1620 
Q 3100 1781 2813 1891 
Q 2628 1963 1997 2114 
Q 1366 2266 1113 2400 
Q 784 2572 623 2826 
Q 463 3081 463 3397 
Q 463 3744 659 4045 
Q 856 4347 1234 4503 
Q 1613 4659 2075 4659 
Q 2584 4659 2973 4495 
Q 3363 4331 3572 4012 
Q 3781 3694 3797 3291 
L 3216 3247 
Q 3169 3681 2898 3903 
Q 2628 4125 2100 4125 
Q 1550 4125 1298 3923 
Q 1047 3722 1047 3438 
Q 1047 3191 1225 3031 
Q 1400 2872 2139 2705 
Q 2878 2538 3153 2413 
Q 3553 2228 3743 1945 
Q 3934 1663 3934 1294 
Q 3934 928 3725 604 
Q 3516 281 3123 101 
Q 2731 -78 2241 -78 
Q 1619 -78 1198 103 
Q 778 284 539 648 
Q 300 1013 288 1472 
z
" transform="scale(0.015625)"/>
      <path id="ArialMT-6b" d="M 425 0 
L 425 4581 
L 988 4581 
L 988 1969 
L 2319 3319 
L 3047 3319 
L 1778 2088 
L 3175 0 
L 2481 0 
L 1384 1697 
L 988 1316 
L 988 0 
L 425 0 
z
" transform="scale(0.015625)"/>
      <path id="ArialMT-77" d="M 1034 0 
L 19 3319 
L 600 3319 
L 1128 1403 
L 1325 691 
Q 1338 744 1497 1375 
L 2025 3319 
L 2603 3319 
L 3100 1394 
L 3266 759 
L 3456 1400 
L 4025 3319 
L 4572 3319 
L 3534 0 
L 2950 0 
L 2422 1988 
L 2294 2553 
L 1622 0 
L 1034 0 
z
" transform="scale(0.015625)"/>
      <path id="ArialMT-3a" d="M 578 2678 
L 578 3319 
L 1219 3319 
L 1219 2678 
L 578 2678 
z
M 578 0 
L 578 641 
L 1219 641 
L 1219 0 
L 578 0 
z
" transform="scale(0.015625)"/>
     </defs>
     <use xlink:href="#ArialMT-52"/>
     <use xlink:href="#ArialMT-65" x="72.216797"/>
     <use xlink:href="#ArialMT-69" x="127.832031"/>
     <use xlink:href="#ArialMT-7a" x="150.048828"/>
     <use xlink:href="#ArialMT-65" x="200.048828"/>
     <use xlink:href="#ArialMT-73" x="255.664062"/>
     <use xlink:href="#ArialMT-20" x="305.664062"/>
     <use xlink:href="#ArialMT-7c" x="333.447266"/>
     <use xlink:href="#ArialMT-20" x="359.423828"/>
     <use xlink:href="#ArialMT-50" x="387.207031"/>
     <use xlink:href="#ArialMT-72" x="453.90625"/>
     <use xlink:href="#ArialMT-6f" x="487.207031"/>
     <use xlink:href="#ArialMT-62" x="542.822266"/>
     <use xlink:href="#ArialMT-61" x="598.4375"/>
     <use xlink:href="#ArialMT-62" x="654.052734"/>
     <use xlink:href="#ArialMT-69" x="709.667969"/>
     <use xlink:href="#ArialMT-6c" x="731.884766"/>
     <use xlink:href="#ArialMT-69" x="754.101562"/>
     <use xlink:href="#ArialMT-74" x="776.318359"/>
     <use xlink:href="#ArialMT-79" x="804.101562"/>
     <use xlink:href="#ArialMT-20" x="854.101562"/>
     <use xlink:href="#ArialMT-50" x="881.884766"/>
     <use xlink:href="#ArialMT-6c" x="948.583984"/>
     <use xlink:href="#ArialMT-6f" x="970.800781"/>
     <use xlink:href="#ArialMT-74" x="1026.416016"/>
     <use xlink:href="#ArialMT-20" x="1054.199219"/>
     <use xlink:href="#ArialMT-2d" x="1081.982422"/>
     <use xlink:href="#ArialMT-20" x="1115.283203"/>
     <use xlink:href="#ArialMT-53" x="1143.066406"/>
     <use xlink:href="#ArialMT-6b" x="1209.765625"/>
     <use xlink:href="#ArialMT-65" x="1259.765625"/>
     <use xlink:href="#ArialMT-77" x="1315.380859"/>
     <use xlink:href="#ArialMT-3a" x="1387.597656"/>
     <use xlink:href="#ArialMT-20" x="1415.380859"/>
     <use xlink:href="#ArialMT-30" x="1443.164062"/>
     <use xlink:href="#ArialMT-2e" x="1498.779297"/>
     <use xlink:href="#ArialMT-31" x="1526.5625"/>
    </g>
   </g>
  </g>
 </g>
 <defs>
  <clipPath id="pe8f19a3eef">
   <rect x="86.4" y="43.2" width="276.352941" height="291.6"/>
  </clipPath>
  <clipPath id="pfc0b9209c5">
   <rect x="418.023529" y="43.2" width="276.352941" height="291.6"/>
  </clipPath>
  <clipPath id="p65481e6ae0">
   <rect x="749.647059" y="43.2" width="276.352941" height="291.6"/>
  </clipPath>
 </defs>
</svg>
